<svg width="100" height="120" viewBox="0 0 100 120" xmlns="http://www.w3.org/2000/svg" xmlns:xlink="http://www.w3.org/1999/xlink"><title>deploybot-logo</title><defs><ellipse id="a" cx="22.39" cy="22.301" rx="22.282" ry="22.274"/><ellipse id="c" cx="22.39" cy="22.301" rx="22.282" ry="22.274"/><linearGradient x1="49.999%" y1=".099%" x2="49.999%" y2="100.04%" id="e"><stop stop-color="#FFF" offset="0%"/><stop stop-color="#F0EFEF" offset="100%"/></linearGradient></defs><g fill="none" fill-rule="evenodd"><path fill="#D3D3D3" d="M37.685 31.793l-2.104 1.483-3.586-6.067 1.052-.784z"/><path d="M31.32 24.027c1.05-.43 2.237.08 2.67 1.106a2.055 2.055 0 0 1-1.107 2.67 2.046 2.046 0 0 1-2.67-1.133 2.012 2.012 0 0 1 1.106-2.643z" fill="#E7E7E7"/><path fill="#D3D3D3" d="M63.204 31.793l2.104 1.483 3.587-6.067-1.052-.784z"/><path d="M69.57 24.027a2.056 2.056 0 0 0-2.67 1.106 2.055 2.055 0 0 0 1.105 2.67 2.047 2.047 0 0 0 2.67-1.133 2.012 2.012 0 0 0-1.105-2.643z" fill="#E7E7E7"/><path d="M22.498 49.753c-4.128 9.923-26.06 41.932-16.32 44.953 5.96 1.86 6.635-7.146 14.108-7.902 4.477-.43 9.927 5.798 9.927 5.798" stroke="#E3526A" stroke-width="2.697"/><path d="M23.037 49.213C18.91 59.137-3.29 91.416 6.447 94.436c5.962 1.86 6.906-7.416 14.378-8.17 4.478-.432 9.927 5.797 9.927 5.797" stroke="#F2839B" stroke-width=".809" opacity=".3"/><path fill="#C2C1C1" d="M30.24 89.85l-2.116 2.726-1.853-1.438 2.12-2.728z"/><path d="M28.567 90.822l.162-.188a2.936 2.936 0 0 1 4.152-.513l5.098 3.966-3.802 4.88-5.098-3.963c-1.268-1.024-1.51-2.885-.513-4.18z" fill="#E7E7E7"/><path fill="#D3D3D3" d="M40.99 97.277l-2.927 3.772-3.43-2.664 2.93-3.772z"/><path fill="#838383" d="M39.568 97.092l-.546.703-.703-.546.544-.705z"/><path fill="#3B3C4A" d="M39.578 97.085l-.546.703-.34-.264.545-.703z"/><path fill="#838383" d="M38.077 99.014l-.546.703-.7-.546.545-.7z"/><path fill="#3B3C4A" d="M38.088 99.007l-.546.703-.34-.264.546-.703zm-5.098-3.492l.11-.135-.27-.216c-.11-.08-.163-.243-.19-.35 0-.027-.08-.783-.08-.783a.204.204 0 0 0-.055-.105l-.7-.54a.532.532 0 0 1-.594-.027c-.214-.16-.24-.485-.08-.7.163-.217.486-.244.7-.082a.5.5 0 0 1 .164.567l.19.16c.026.028.08.028.107.028 0 0 .756-.107.783-.107h.054c.108 0 .243.027.324.108l.513.406a.34.34 0 0 1 .324.027.337.337 0 0 1 .054.458.337.337 0 0 1-.46.055c-.106-.08-.133-.19-.106-.296l-.512-.406c-.026-.027-.08-.027-.134-.027l-.567.08 1.916 1.484.162-.215.296.755-.81-.108.163-.216-1.403-1.08.054.594c0 .027.027.08.054.108l.27.216.11-.135.51.403-.403.512-.487-.43z"/><path d="M79.065 55.146c5.045-3.506 24.71-17.07 17.157-24.324-2.4-2.292-5.8-2.076-8.525-.485-1.996 1.16-4.046 2.48-6.393 2.697-3.857.323-6.825-2.67-5.503-6.472.865-2.48 3.158-4.746 2.457-7.578-.432-1.806-1.484-3.37-2.266-5.042" stroke="#F8C761" stroke-width="2.697"/><path d="M79.362 55.28c5.044-3.505 24.682-17.527 17.102-24.78-2.4-2.293-5.8-2.078-8.524-.487-1.996 1.16-4.046 2.347-6.393 2.697-4.29.593-6.825-2.67-5.503-6.472.863-2.48 3.156-4.746 2.455-7.577-.434-1.805-1.486-3.37-2.268-5.04" stroke="#FFD892" stroke-width=".809" opacity=".6"/><path fill="#C2C1C1" d="M72.223 10.472l2.774-1.506 3.448 6.35-2.773 1.507z"/><path fill="#E7E7E7" d="M68.288 5.53l4.694-2.55 4.555 8.39-4.693 2.55z"/><path fill="#D3D3D3" d="M66.916 2.208l4.054-2.2 1.712 3.15-4.054 2.202z"/><path d="M70.757 2.157L68.84 3.21a.588.588 0 0 1-.808-.244.587.587 0 0 1 .243-.81l1.915-1.05a.588.588 0 0 1 .81.242.638.638 0 0 1-.243.81z" fill="#FFF"/><path fill="#ADB2B5" d="M24.575 49.375h51.712v5.77H24.575z"/><path fill="#9AA2A5" d="M24.575 52.26h51.712v2.886H24.575z"/><ellipse fill="#DCDBDB" cx="50.444" cy="49.187" rx="22.282" ry="22.274"/><g transform="translate(28.054 26.966)"><ellipse cx="22.39" cy="22.301" rx="22.282" ry="22.274" fill="#D3D3D3"/><mask id="b" fill="#fff"><use xlink:href="#a"/></mask><g mask="url(#b)"><path d="M36.174 27.72H8.604c-5.502 0-9.98-4.475-9.98-9.976v-33.95h47.504v33.923c.027 5.528-4.45 10.004-9.954 10.004z" fill="#A9ABAF" opacity=".5"/><path d="M36.174 27.182H8.604c-5.502 0-9.98-4.476-9.98-9.978v-33.95h47.504v33.924c.027 5.528-4.45 10.004-9.954 10.004z" fill="#F0EFEF"/></g><g><mask id="d" fill="#fff"><use xlink:href="#c"/></mask><path fill="#E7E7E7" mask="url(#d)" d="M-16.536 7.01h6.258v6.877h-6.258z"/></g></g><g transform="translate(68.787 53.663)"><path fill="#ADB2B5" d="M20.473 29.16l-1.364-1.603 4.843-4.127 1.364 1.602zm7.52-9.58l-3.9 2.61-12.99-19.407 3.9-2.61z"/><ellipse fill="#E7E7E7" cx="26.274" cy="22.867" rx="3.911" ry="3.91"/><ellipse fill="#ADB2B5" cx="26.274" cy="22.867" rx="1.214" ry="1.213"/><path fill="#E7E7E7" d="M13.9 36.863l-3.8-4.63 8.82-7.236 3.8 4.63z"/><path d="M4.91 42.013c.782.297 1.7.216 2.4-.323 1.08-.836 1.295-2.373.46-3.452-.837-1.078-2.375-1.294-3.454-.458-.728.54-1.052 1.43-.944 2.265l-3.183.35c-.218-1.914.537-3.91 2.183-5.15a5.677 5.677 0 0 1 6.88 9.034 5.595 5.595 0 0 1-5.585.727l1.24-2.994z" fill="#3B3C4A"/><path d="M11.384 38.885L14.27 36.7l-3.507-4.61-2.886 2.184a2.88 2.88 0 0 0-.54 4.045c.944 1.292 2.78 1.535 4.047.564z" fill="#E7E7E7"/><path fill="#ADB2B5" d="M17.148 36.553l-2.938 2.242-5.463-7.162 2.94-2.24z"/></g><g transform="translate(0 2.157)"><path fill="#ADB2B5" d="M8.9 24.447l1.595 1.373-4.152 4.823L4.75 29.27zM2.96 35.054l3.453-3.18 15.82 17.176-3.45 3.18z"/><ellipse fill="#E7E7E7" cx="4.127" cy="31.551" rx="3.911" ry="3.91"/><ellipse fill="#ADB2B5" cx="4.127" cy="31.551" rx="1.214" ry="1.213"/><path fill="#E7E7E7" d="M13.85 16.202l4.468 3.99-7.24 8.105-4.467-3.99z"/><path d="M22.31 9.33a2.45 2.45 0 0 0-2.32.7 2.442 2.442 0 0 0 .08 3.48c.97.944 2.535.917 3.48-.08.62-.648.81-1.565.593-2.374l3.102-.836a5.71 5.71 0 0 1-1.376 5.447 5.644 5.644 0 0 1-8.013.162 5.64 5.64 0 0 1-.162-8.01 5.604 5.604 0 0 1 5.395-1.59l-.78 3.1z" fill="#3B3C4A"/><path d="M16.374 13.43l-2.617 2.723 4.263 4.1 2.616-2.725c1.106-1.16 1.08-2.993-.08-4.1l-.082-.08c-1.16-1.105-2.994-1.078-4.1.08z" fill="#E7E7E7"/><path fill="#ADB2B5" d="M11.048 16.615l2.558-2.668 6.5 6.235-2.558 2.668z"/><path fill="#FFF" d="M20.514 1.313L31.46.15l1.226 11.557L21.74 12.87z"/><path d="M30.67 6.12l-2.265-1.967c-.08-.054-.19-.054-.243.027l-.43.485c-.055.08-.055.19.026.243l1.645 1.43-1.43 1.644c-.053.08-.053.19.028.243l.487.43a.2.2 0 0 0 .135.055c.055 0 .082-.027.11-.054L30.7 6.39a.207.207 0 0 0-.027-.27zm-5.232 2.05l-1.646-1.428 1.43-1.645a.206.206 0 0 0 .054-.135c0-.054-.027-.08-.054-.108l-.485-.432a.206.206 0 0 0-.135-.053c-.054 0-.08.025-.108.05l-1.97 2.267c-.053.08-.053.188.027.242L24.82 8.9a.21.21 0 0 0 .135.052c.054 0 .08-.027.108-.054l.433-.487a.26.26 0 0 0-.054-.24zm2.158-4.664c-.027-.027-.054-.054-.108-.08l-.378-.082c-.108-.027-.188.027-.215.135l-1.322 5.957c0 .054 0 .08.027.135.027.027.054.054.108.08l.377.082h.054c.08 0 .133-.054.16-.135l1.322-5.96c0-.054 0-.108-.027-.135z" fill="#45A6C0"/><path d="M19.395 11.03c.108-.378.297-.73.567-1.026a2.45 2.45 0 0 1 2.32-.7l.782-3.102a5.604 5.604 0 0 0-5.395 1.59 5.622 5.622 0 0 0-1.54 3.4c1.08-.055 2.185-.11 3.264-.163z" fill="#3B3C4A"/></g><path d="M22.04 54.148v16.207c0 5.42 4.53 11.515 10.573 8.737 9.98-4.584 11.627-10.085 27.273-9.114 5.53.35 15.564 3.91 15.564 3.91" stroke="#F8C761" stroke-width="2.697"/><path d="M22.31 53.528v16.207c0 5.42 4.018 12.243 10.573 9.007 9.873-4.854 11.627-10.086 27.272-9.115 5.53.35 15.565 4.18 15.565 4.18" stroke="#FFD892" stroke-width=".809" opacity=".6"/><path d="M79.038 54.148v18.904c0 5.42-5.907 8.79-10.574 6.04-9.47-5.61-15.565-13.186-30.995-10.436-2.673.486-13.193 5.5-13.193 5.5" stroke="#E3526A" stroke-width="2.697"/><path d="M78.768 53.88v19.44c0 5.422-5.907 7.983-10.574 5.233-9.468-5.61-16.536-13.025-30.725-10.247-2.673.512-13.463 5.582-13.463 5.582" stroke="#F2839B" stroke-width=".809" opacity=".3"/><g transform="translate(76.07 44.494)"><path d="M1.295.216C.89.216.485.243.08.324v14.912c.406.054.81.108 1.215.108a7.54 7.54 0 0 0 7.553-7.55A7.545 7.545 0 0 0 1.295.214z" fill="#E7E7E7"/><ellipse fill="#3B3C4A" cx="6.933" cy="5.339" rx=".54" ry=".539"/></g><g transform="translate(15.916 44.494)"><path d="M7.66.216c.406 0 .81.027 1.215.108v14.912c-.405.054-.81.108-1.214.108a7.54 7.54 0 0 1-7.55-7.55C.11 3.587 3.51.216 7.663.216z" fill="#E7E7E7"/><ellipse fill="#3B3C4A" cx="2.023" cy="5.339" rx=".54" ry=".539"/></g><ellipse cx="13.596" cy="2.643" rx="13.488" ry="2.427" opacity=".22" transform="translate(38.305 86.83)" fill="#3B3C4A"/><ellipse fill="#3B3C4A" opacity=".86" cx="50.444" cy="49.106" rx="11.114" ry="10.679"/><ellipse fill="#FFF" cx="50.444" cy="50.454" rx="10.682" ry="10.679"/><g transform="translate(45.32 45.303)"><ellipse fill="#4BBE9D" cx="5.125" cy="5.151" rx="4.99" ry="4.989"/><ellipse fill="#3B3C4A" cx="5.125" cy="5.151" rx="2.293" ry="2.292"/><ellipse fill="#FFF" cx="6.987" cy="3.425" rx=".89" ry=".89"/></g><path d="M45.05 46.787c0 .215 11.437 6.417 11.437 6.417l.7-4.584-7.606-4.584-4.53 2.75z" fill="#FFF" opacity=".25"/><path fill="#D3D3D3" d="M81.762 79.117l-3.804-1.297 1.654-4.85 3.803 1.297z"/><path fill="#ADB2B5" d="M70.618 74.914l-2.094-.714 1.47-4.313 2.095.714z"/><path fill="#ADB2B5" d="M69.572 73.923l-2.298-.784 1.114-3.27 2.298.785z"/><path fill="#E7E7E7" d="M77.68 78.73l-7.94-2.708 2.263-6.636 7.94 2.71z"/><path d="M79.308 73.915l3.803 1.294" stroke="#E3526A" stroke-width=".5"/><path d="M78.93 74.966l3.804 1.322" stroke="#63C0AA" stroke-width=".5"/><path d="M78.58 76.045l3.803 1.294" stroke="#706582" stroke-width=".5"/><path d="M78.202 77.097l3.803 1.294" stroke="#F8C761" stroke-width=".5"/><path fill="#FFF" d="M80.173 76.494l-3.14-1.07.374-1.1 3.14 1.072z"/><g><path fill="#ADB2B5" d="M23.59 79.834l-3.083-6.688 3.967-1.83 3.084 6.688z"/><g transform="translate(14.297 76.854)"><path fill="#DCDBDB" d="M.324 3.182L.162 4.908l6.393.566 4.18-4.26L9.495 0 5.88 3.667z"/><ellipse fill="#3B3C4A" cx="6.177" cy="4.449" rx="1.241" ry="1.24"/></g><g transform="translate(12.948 72.81)"><path fill="#DCDBDB" d="M1.484 6.5L.108 5.446 3.965.324 9.927.108l.08 1.726-5.15.188z"/><ellipse fill="#3B3C4A" cx="4.478" cy="1.294" rx="1.241" ry="1.24"/></g><path fill="#DCDBDB" d="M26.887 79.188l-3.717-8.06 2.816-1.298 3.717 8.06z"/></g><ellipse fill="#FFF" transform="rotate(-48.7 61.618 36.564)" cx="61.618" cy="36.564" rx="2.563" ry="3.668"/><path d="M23.037 115.12c0-2.536-2.023-4.585-4.532-4.585h-3.183v9.14h3.183a4.53 4.53 0 0 0 4.532-4.556zm-2.832 0c0 .943-.756 1.698-1.7 1.698h-.512v-3.425h.512c.944.027 1.7.782 1.7 1.726zm9.63 4.556v-2.696h-3.02v-1.187h3.02v-1.43h-3.02v-1.105h3.02v-2.723h-5.692v9.14h5.692zm8.362-5.555c0-1.966-1.59-3.584-3.534-3.584H31.48v9.14h2.67v-1.994h.513c1.943.028 3.534-1.59 3.534-3.56zm-2.562 0c0 .57-.46 1-.998 1h-.513v-1.995h.513c.566 0 .998.458.998.997zm9.657 5.557v-2.696h-3.02v-6.444H39.6v9.14h5.692zm9.873-4.557c0-2.617-2.104-4.774-4.72-4.774-2.59 0-4.722 2.13-4.722 4.773a4.714 4.714 0 0 0 4.72 4.744c2.59 0 4.722-2.13 4.722-4.746zm-6.5 0c0-1 .78-1.808 1.78-1.808.997 0 1.78.81 1.78 1.807 0 .996-.783 1.805-1.78 1.805-1 0-1.78-.81-1.78-1.807zm14.754-4.585h-2.97l-1.295 2.562-1.268-2.562H54.92l2.913 5.42v3.72h2.67v-3.693l2.914-5.447zm7.255 6.39c0-.862-.405-1.536-1.025-1.94.486-.405.783-.972.783-1.727 0-1.483-1.214-2.723-2.698-2.723h-3.533v9.14h3.75c1.51 0 2.724-1.212 2.724-2.75zm-2.644-.188a.668.668 0 0 1-.673.674h-.486v-1.346h.487c.377 0 .674.324.674.674zm-.19-3.29a.662.662 0 0 1-.645.674h-.324v-1.32h.325c.35 0 .647.298.647.648zm13.14 1.672c0-2.618-2.105-4.775-4.72-4.775-2.59 0-4.72 2.13-4.72 4.773a4.714 4.714 0 0 0 4.72 4.745c2.615 0 4.72-2.13 4.72-4.746zm-6.475 0c0-1 .783-1.81 1.78-1.81 1 0 1.78.81 1.78 1.808 0 .997-.78 1.806-1.78 1.806-.997 0-1.78-.81-1.78-1.807zm12.948-1.863v-2.723h-5.718v2.723h1.51v6.418h2.67v-6.418h1.538z" fill="url(#e)"/></g></svg>