<svg width="156" height="68" viewBox="0 0 156 68" fill="none" xmlns="http://www.w3.org/2000/svg">
<g clip-path="url(#clip0)">
<path d="M154.212 24.2852C153.636 24.2852 150.247 28.1997 146.787 30.2151C144.644 31.4415 142.254 32.1749 139.791 32.3618C139.791 32.3618 147.575 15.1429 147.575 13.6731C147.575 12.2032 145.555 9.22819 144.883 9.22819C143.312 9.22819 133.402 23.9013 133.402 23.9013C133.589 23.2599 135.478 16.8299 135.478 15.6329C135.478 14.9914 134.801 14.0165 134.048 13.1579C133.407 12.4204 132.715 11.7436 132.25 11.7436C130.346 12.8144 125.012 14.1125 122.906 13.9206C122.214 13.9206 120.886 15.941 119.527 18.6079C118.885 19.805 111.248 31.3162 111.248 31.3162C111.248 31.3162 114.026 22.7851 114.026 22.0577C114.026 21.4516 113.289 20.4818 112.511 19.6029C111.844 18.8604 111.102 18.219 110.607 18.219C110.379 18.219 109.975 19.2292 109.506 20.7445C107.596 25.154 101.889 33.276 101.889 33.276C101.889 33.276 104.581 24.4064 107.243 16.3602C109.198 10.4606 111.47 5.43489 111.47 4.14689C111.47 3.26801 109.91 -0.0151367 109.278 -0.0151367C108.091 -0.0151367 103.995 10.9607 100.783 21.0172C99.4794 25.3813 92.4888 35.6651 92.4888 35.6651C92.4888 35.6651 95.7922 25.5227 95.7922 24.8004C95.7922 24.1943 95.0547 23.2195 94.2769 22.3406C93.6051 21.6031 92.7969 20.896 92.307 20.896C92.0443 20.896 91.4837 22.6032 90.8371 24.9368C89.4037 23.5107 87.5564 22.5738 85.5589 22.2598C84.3163 22.2598 78.144 35.0287 78.0228 39.6655C77.9824 41.4485 80.8362 44.2871 81.6797 44.2871C82.1848 44.2871 85.6043 40.0696 88.1904 36.1045C87.97 37.0271 87.8014 37.9613 87.6853 38.9028C87.6853 39.7463 89.8421 42.292 90.428 42.292C91.0139 42.292 95.5649 35.0287 97.6408 31.6344C97.0145 34.069 96.6306 35.9278 96.6306 36.7915C96.6306 37.6552 98.8379 40.1807 99.4238 40.1807C100.272 40.1807 104.369 34.0084 107.344 29.0685C106.875 30.9368 106.504 32.8285 106.233 34.7357C106.233 35.5792 108.253 37.9684 108.859 37.9684C109.465 37.9684 113.577 31.8213 115.511 28.9372C115.346 29.585 115.251 30.2489 115.228 30.9172C115.228 32.7002 117.931 35.6803 118.764 35.6803C119.598 35.6803 124.825 30.9424 126.588 26.0834C128.215 21.6587 127.937 19.1837 127.74 18.3048C127.596 17.3857 127.205 16.5231 126.608 15.8096C128.106 15.6267 129.579 15.2742 130.998 14.759C129.528 19.7242 127.462 29.0129 127.462 29.9726C127.462 30.8161 129.482 33.0032 130.083 33.0032C130.791 33.0032 131.346 29.8161 141.024 17.0017C138.594 23.0629 135.973 30.4878 135.973 31.2303C135.973 31.9728 137.488 34.2963 138.094 34.6196C138.7 34.9428 140.342 35.064 142.357 34.867C149.105 34.2003 155.237 29.8565 155.859 29.2352C156.48 28.6139 154.914 24.2852 154.212 24.2852ZM89.8573 28.6947C88.2409 32.5335 82.4171 40.0443 82.4171 40.0443C82.4171 37.044 88.3571 26.1541 88.4177 26.0935C88.9209 26.2945 89.3391 26.6633 89.6014 27.1373C89.8638 27.6114 89.9542 28.1616 89.8573 28.6947V28.6947ZM119.537 32.286C120.067 26.4874 125.381 17.9361 125.381 17.9361C125.511 18.4516 125.58 18.9805 125.588 19.512C125.578 19.6415 125.578 19.7715 125.588 19.9009C125.815 26.1995 119.537 32.286 119.537 32.286V32.286Z" fill="#6633CC"/>
<path d="M115.052 17.7139C115.385 17.7139 116.961 13.1276 116.961 12.6629C116.961 11.8749 115.067 8.90997 114.304 8.90997C113.875 8.90997 113.294 10.4253 112.87 11.7234C112.501 12.875 112.142 13.9155 112.183 14.4509C112.228 15.0722 114.471 17.7139 115.052 17.7139Z" fill="#6633CC"/>
<path d="M129.775 40.9787C127.588 39.9332 112.88 41.2464 96.6811 44.6862C89.5277 46.2351 82.494 48.2928 75.6336 50.8433C76.0175 36.9581 79.5431 28.1138 79.8259 25.8914C79.9168 25.2045 77.7399 22.2092 76.7953 22.2092C75.6235 22.2092 69.0825 33.8518 69.0825 33.8518C69.3194 32.8542 69.4881 31.8416 69.5876 30.8212C69.5876 30.0635 67.0317 27.0834 66.2236 27.0834C65.2639 27.0834 60.5614 34.7104 60.5614 34.7104C60.7483 34.0639 61.1322 33.0436 61.1322 32.9022C61.1322 32.0284 58.4552 29.1644 57.5965 29.1644C57.051 29.1644 55.2983 35.1953 54.0204 40.1857C52.1717 40.6251 47.7521 41.701 47.3379 41.8525C46.8328 42.0546 46.7318 43.2921 46.7318 44.171C46.7318 44.373 46.8631 44.5346 47.0803 44.4892C47.2975 44.4437 48.1208 44.2467 49.1007 44.0144C47.8174 47.3468 45.7648 50.3287 43.1102 52.7172C45.6812 37.0591 51.4696 32.7759 51.4696 32.7759C51.7171 34.67 50.4948 37.6956 50.4948 38.2461C50.4948 38.7967 52.692 38.1249 53.0203 37.6653C53.3486 37.2056 54.0305 33.7406 53.8436 32.3466C53.7729 31.8011 50.3079 28.7098 49.5654 28.7098C47.545 28.7098 44.4235 32.3516 41.9889 37.635C40.4484 40.408 34.5438 48.8987 34.5438 48.8987C34.5438 48.8987 37.2612 40.61 37.2612 39.8826C37.2612 39.2765 36.5237 38.3017 35.7459 37.4228C35.0792 36.6854 34.271 35.9782 33.776 35.9782C31.4498 36.3679 29.1478 36.8907 26.8814 37.5441C28.5937 30.5787 30.4575 24.8357 31.402 21.886L32.5133 21.5122C43.6911 17.8047 54.4851 15.3096 58.2329 14.4862C56.758 18.1432 55.5508 21.3859 55.566 21.6688C55.5963 22.3405 56.8843 24.3508 57.9147 24.6691C58.2178 24.765 59.9351 20.1232 61.6676 15.6884C63.4001 11.2536 65.2033 7.1421 65.2033 6.77842C65.2033 6.05108 64.0113 3.59125 63.4152 3.59125C63.0314 3.59125 61.7838 6.14706 60.3846 9.33424C57.5207 9.49082 50.0806 10.3444 35.2711 14.5923C17.7088 19.6433 1.78299 26.9016 0.540445 28.23C-0.136388 28.9574 -0.0202171 30.2504 0.207078 31.7657C0.207078 31.7657 0.712181 34.7963 1.25264 35.0135C1.79309 35.2307 11.9759 29.2352 25.6591 23.9771C23.8862 27.6542 22.2092 33.4224 20.7949 39.4028C16.9865 40.7211 13.7235 42.095 13.3144 42.3172C12.8093 42.6001 12.8093 43.6861 12.8093 44.8427C12.8093 46.1156 12.9053 47.3682 13.5064 47.0349C15.5372 45.9178 17.6244 44.9063 19.7595 44.0043C17.7846 53.2728 16.542 61.8848 16.6531 62.7637C16.8299 64.1527 20.7596 67.946 21.5677 67.946C22.5325 67.946 22.4264 58.5663 25.5075 43.5699C25.6489 42.888 25.7904 42.2162 25.9368 41.5495C28.7553 40.5393 31.1343 39.7715 32.3617 39.4634C31.0131 44.0093 29.3059 51.5505 29.3059 52.4546C29.3059 53.3587 31.4879 55.8943 32.0637 55.8943C32.8769 55.8943 38.9785 46.4843 38.9785 46.4843L39.1907 46.161C38.7171 48.4187 38.4734 50.7186 38.4633 53.0254C38.4633 54.4649 40.8979 57.0661 41.8323 57.0661C43.0648 57.0661 45.959 53.8992 48.2673 50.419C49.7133 48.274 50.8174 45.9174 51.5403 43.4335L53.288 43.0042C52.9662 44.2018 52.7182 45.418 52.5455 46.6459C52.5455 47.4895 55.071 50.419 55.6418 50.419C56.4196 50.419 57.7884 41.898 63.9759 33.4426C62.7131 38.1148 61.4201 43.777 61.4201 44.5548C61.4201 45.3983 63.9456 48.3279 64.5164 48.3279C65.5619 48.3279 69.4108 36.1449 73.3505 31.0232C71.81 38.059 71.1752 45.2629 71.4615 52.4596C63.789 55.5256 58.834 58.1774 58.834 58.4754C58.935 59.3441 60.6624 61.6726 61.2938 61.9505C61.4504 62.0262 68.6733 61.9909 74.1688 62.8495C74.7901 62.9455 73.593 59.5108 72.9212 59.3441C71.2727 59.2469 69.6198 59.2469 67.9712 59.3441C74.6436 56.6722 85.6497 52.5859 97.6963 50.121C120.517 45.4539 135.099 46.3025 135.099 46.0802C135.104 45.6458 133.508 42.7617 129.775 40.9787Z" fill="#6633CC"/>
<path d="M35.9329 30.0029C35.5641 31.1546 35.2055 32.1951 35.2459 32.7305C35.2964 33.3619 37.534 36.0035 38.1149 36.0035C38.4483 36.0035 40.0242 31.4172 40.0242 30.9525C40.0242 30.1646 38.13 27.1996 37.3673 27.1996C36.938 27.1895 36.347 28.6998 35.9329 30.0029Z" fill="#6633CC"/>
</g>
<defs>
<clipPath id="clip0">
<rect width="156" height="67.9814" fill="white"/>
</clipPath>
</defs>
</svg>
