<svg width="80" height="6" viewBox="0 0 80 6" xmlns="http://www.w3.org/2000/svg"><title>waves-pattern-white-top</title><g fill="none" fill-rule="evenodd"><g fill="#FFF"><path d="M79.808 5.72H80V0H60v5.72h.192C65.002 5.582 65.065.273 70 .273s5 5.31 9.808 5.447zM59.808 5.72H60V0H40v5.72h.192C45.002 5.582 45.065.273 50 .273s5 5.31 9.808 5.447zM39.808 5.72H40V0H20v5.72h.192C25.002 5.582 25.065.273 30 .273s5 5.31 9.808 5.447zM19.808 5.72H20V0H0v5.72h.192C5.002 5.582 5.065.273 10 .273s5 5.31 9.808 5.447z"/></g><g stroke="#CCC" stroke-width=".5"><path d="M0 5.727c5 0 5-5.454 10-5.454s5 5.454 10 5.454M20 5.727c5 0 5-5.454 10-5.454s5 5.454 10 5.454M40 5.727c5 0 5-5.454 10-5.454s5 5.454 10 5.454M60 5.727c5 0 5-5.454 10-5.454s5 5.454 10 5.454"/></g></g></svg>