<svg width="200" height="62" viewBox="0 0 200 62" xmlns="http://www.w3.org/2000/svg"><title>beanstalk-logo</title><g fill="#B4F5AE" fill-rule="evenodd"><path d="M27.04 15.758c0-5.052-4.58-10.39-6.01-15.3L20.372.23C-4.72 19.346 27.04 34.76 27.04 15.758zm-7.755-7.09s-1.43 3.703-1.43 6.488c0 2.784 1.115 5.625 1.115 5.625s-.286-3.73-.372-6.112c-.086-2.383.687-6 .687-6z"/><path d="M18.312 38.323c-.752-.843-2.284-1.228-2.54-1.287 1.224-1.826 1.73-4.252.966-6.955-1.745-6.17-11.874-4.878-16.51-7.49l-.056.373c-.55 18.124 9.806 19.986 14.58 15.3.59.34 2.642 1.644 3.56 3.9v7.925c0 6.975 4.978 11.826 10.9 11.826 7.068.03 11.532-5.597 11.532-12.6 0-6.833-4.52-11.655-10.386-11.655-3.12 0-5.093 1.865-6.266 3.53v-6.24c.984-1.484 2.36-2.382 2.88-2.686 4.545 4.924 15.194 3.47 14.63-14.468l-.63-.373c-4.49 2.497-13.933 1.263-15.65 7.233-.698 2.427-.316 4.627.707 6.346-.1.022-1.12.256-1.938.775v-3.073c0-2.727-1.546-4.02-3.777-4.02h-2.003v13.64zm16.452 11.995c0 3.73-2.06 6.515-4.92 6.515-3.435 0-5.724-2.21-5.724-7.52 0-3.617 2.203-6.516 5.122-6.516 3.52-.028 5.522 1.895 5.522 7.52zm-6.266-19.69s2.604-.948 4.893-2.67c2.633-1.98 4.178-5.225 4.178-5.225s-2.26 2.64-4.006 4.162c-1.83 1.665-5.064 3.732-5.064 3.732zM4.492 28.76s2.06 3.532 4.35 5.254c2.202 1.665 4.978 2.382 4.978 2.382s-2.976-1.923-4.893-3.3c-1.974-1.407-4.435-4.335-4.435-4.335zM57.825 45.983c0 1.636-1.258 2.24-6.695 2.24h-2.575l.03-.776c.113-2.67 2.06-4.937 4.834-4.937 2.69-.03 4.405 1.12 4.405 3.473zm5.408.66c0-5.54-4.463-8.984-9.27-8.984-6.61 0-11.33 4.88-11.33 12.63 0 7.09 5.607 11.653 11.387 11.653 6.352 0 8.355-2.297 8.355-5.253v-1.81h-.23c-1.86 1.724-4.69 2.183-7.095 2.183-3.405 0-6.037-1.837-6.466-4.765h3.777c7.67 0 10.873-1.378 10.873-5.654zM78.255 53.532c0 2.354-1.202 3.588-3.69 3.588-2.548 0-3.978-1.09-3.978-2.87 0-1.894 1.23-2.928 5.608-2.928h2.06v2.21zm5.636-.028v-5.34c0-8.008-4.634-10.42-9.784-10.42-6.095 0-8.412 3.1-8.412 5.685v1.864h.23c.857-1.09 3.175-2.67 7.323-2.67 3.434 0 4.98 1.006 4.98 4.25v.286h-2.004c-8.498 0-11.502 3.158-11.502 7.29 0 4.25 3.778 7.35 9.27 7.35h1.175c5.12 0 8.726-3.388 8.726-8.296zM106.438 61.426v-13.52c0-6.6-4.52-10.247-9.957-10.247-7.21 0-10.443 5.022-10.443 9.93v10.047c0 2.153 1.574 3.79 4.035 3.79h1.716V47.992c0-3.3 1.717-5.224 4.206-5.224 2.976 0 4.693 1.72 4.693 5.653v9.214c0 2.153 1.63 3.79 4.206 3.79h1.545zM126.753 54.106c0-3.702-2.576-5.798-7.382-6.6-3.948-.633-4.635-1.12-4.635-2.298 0-1.492 1.116-2.583 4.636-2.583 2.747 0 5.408.947 6.61 2.153h.23v-2.182c0-2.24-2.147-4.937-7.383-4.937-5.923 0-9.843 3.702-9.843 8.036 0 3.53 2.346 5.454 7.268 6.172 4.006.574 4.807 1.205 4.807 2.526 0 1.722-1.375 2.554-4.207 2.554-2.747 0-5.723-1.033-6.953-2.21h-.23v2.64c0 2.354 3.177 4.565 7.44 4.565 6.21 0 9.643-2.928 9.643-7.837zM128.612 39.123v13.95c0 5.425 2.833 8.61 8.67 8.61 3.347 0 5.064-1.49 5.064-3.874v-2.067h-.23c-.914.574-2.316.803-4.147.803-2.32 0-3.664-1.148-3.664-4.162v-9.1h4.578c2.346 0 3.434-1.55 3.434-2.754v-2.354h-8.012v-5.253h-1.345c-.886 0-1.944.69-2.717 1.58-1.202 1.49-1.63 2.353-1.63 4.62zM157.51 53.532c0 2.354-1.2 3.588-3.69 3.588-2.547 0-4.006-1.09-4.006-2.87 0-1.894 1.23-2.928 5.608-2.928h2.06v2.21h.03zm5.637-.028v-5.34c0-8.008-4.635-10.42-9.785-10.42-6.094 0-8.412 3.1-8.412 5.685v1.864h.23c.857-1.09 3.175-2.67 7.352-2.67 3.434 0 4.98 1.006 4.98 4.25v.286h-2.033c-8.5 0-11.503 3.158-11.503 7.29 0 4.25 3.777 7.35 9.27 7.35h1.145c5.15 0 8.755-3.388 8.755-8.296zM177.024 58.154V56.92h-1.545c-2.72 0-3.92-.718-3.92-3.072v-17.25c0-2.182-1.23-3.876-4.12-3.876h-1.632v21.672c0 4.707 2.575 7.233 7.354 7.233 2.518.03 3.862-.976 3.862-3.473zM180.258 32.722h-1.86V57.35c0 2.727 1.287 4.133 3.948 4.076l1.86-.057V50.06c2.518 3.386 5.093 6.83 8.07 9.902 1 .976 2.488 1.58 3.776 1.58 2.346 0 3.29-1.006 3.89-2.843-1.43-.46-2.345-.89-4.463-3.015-2.06-2.095-3.863-4.478-5.723-6.745 2.403-3.07 7.782-9.185 9.385-10.563v-.2h-3.29c-1.86 0-3.205.23-4.58 1.492-2.66 2.524-4.863 5.51-7.095 8.437V36.54c.03-2.24-1.144-3.818-3.92-3.818z"/></g></svg>